<?xml version="1.0" encoding="utf-8"?>
<!-- Generator: Adobe Illustrator 17.0.0, SVG Export Plug-In . SVG Version: 6.00 Build 0)  -->
<!DOCTYPE svg PUBLIC "-//W3C//DTD SVG 1.1//EN" "http://www.w3.org/Graphics/SVG/1.1/DTD/svg11.dtd">
<svg version="1.1" xmlns="http://www.w3.org/2000/svg" xmlns:xlink="http://www.w3.org/1999/xlink" x="0px" y="0px" width="160px"
	 height="255px" viewBox="0 0 160 255" enable-background="new 0 0 160 255" xml:space="preserve">
<g id="Layer_2" display="none">
	<rect x="-20.424" y="-37.847" display="inline" fill="#EE1E51" width="225.366" height="326.956"/>
</g>
<g id="Layer_1">
	<path fill-rule="evenodd" clip-rule="evenodd" fill="#FFFFFF" d="M114.113,36.735c-17.051,37.278-66.854,53.023-82,99
		c-1-0.667-2-1.333-3-2c1,0.667,5.48,4.629,12,7C50.299,82.744,88.876,93.733,114.113,36.735z"/>
	<path fill-rule="evenodd" clip-rule="evenodd" fill="#396841" d="M148.895,10.926c-4.219,4.652-9.763,8.763-16.15,12.553
		c1.674,18.107-1.054,42.253-3.546,51.994c-8.082,31.591-35.579,71.748-75.212,68.847c47.188,19.273,83.66-25.242,94.797-60.284
		C153.509,69.174,160.757,19.75,148.895,10.926z"/>
	<path fill-rule="evenodd" clip-rule="evenodd" fill="#95C93D" d="M132.238,3.329c12.299,8.142,7.864,57.895,4,73
		c-9.367,36.612-44.808,84.74-95,64c9.185-57.991,47.763-47.002,73-104c-0.667,0.333,0.667-0.333,0,0
		c-17.051,37.278-66.854,53.023-82,99c-1-0.667-2-1.333-3-2C-21.249,52.073,100.146,43.138,132.238,3.329z"/>
	<g>
		<path fill="#FFFFFF" d="M31.588,161.751c6.055,0,10.547,1.433,13.477,4.297s4.395,7.585,4.395,14.16
			c0,2.897-0.521,4.916-1.562,6.055c-1.042,1.14-3.32,1.709-6.836,1.709H19.479c0.065,5.307,1.131,9.473,3.198,12.5
			c2.067,3.027,5.721,4.541,10.962,4.541c4.883,0,9.424-1.27,13.623-3.809c1.399,1.4,2.1,2.881,2.1,4.443
			c0,2.182-1.799,3.711-5.396,4.59c-3.597,0.879-7.658,1.318-12.183,1.318c-8.333,0-14.315-1.766-17.944-5.298
			c-3.63-3.531-5.444-9.48-5.444-17.847c0-8.235,2.042-14.738,6.128-19.507C18.607,164.136,24.296,161.751,31.588,161.751z
			 M29.732,168.294c-3.255,0-5.729,1.164-7.422,3.491c-1.693,2.327-2.621,5.965-2.783,10.913h5.029
			c5.338,0,8.976-0.105,10.913-0.317c1.937-0.211,3.06-0.562,3.369-1.05c0.309-0.488,0.464-1.399,0.464-2.734
			c0-3.223-0.814-5.745-2.441-7.568C35.233,169.205,32.857,168.294,29.732,168.294z"/>
		<path fill="#FFFFFF" d="M80.709,211.8c-8.008,0-13.705-1.685-17.09-5.054c-3.386-3.369-5.078-9.122-5.078-17.261
			c0-9.017,2.132-15.894,6.396-20.63c4.264-4.736,10.758-7.104,19.482-7.104c4.264,0,7.356,0.398,9.277,1.196
			c1.92,0.798,2.896,1.994,2.93,3.589c0,1.953-0.684,3.809-2.051,5.566c-4.883-2.539-9.05-3.809-12.5-3.809
			c-4.525,0-7.739,1.44-9.644,4.321s-2.856,7.397-2.856,13.55c0,6.315,0.928,11.076,2.783,14.282
			c1.855,3.207,5.241,4.81,10.156,4.81c3.743,0,8.089-1.253,13.037-3.76c1.074,1.498,1.611,3.027,1.611,4.59
			c0,1.855-1.685,3.271-5.054,4.248S84.94,211.8,80.709,211.8z"/>
		<path fill="#FFFFFF" d="M125.875,211.8c-7.064,0-12.256-1.871-15.576-5.615c-3.32-3.743-4.98-9.391-4.98-16.943
			c0-8.691,2.01-15.446,6.03-20.264c4.02-4.817,9.822-7.227,17.407-7.227c7.063,0,12.256,1.872,15.576,5.615s4.98,9.407,4.98,16.992
			c0,8.659-2.011,15.397-6.03,20.215C139.262,209.392,133.459,211.8,125.875,211.8z M127.73,205.257
			c3.711,0,6.396-1.399,8.057-4.199c1.66-2.799,2.49-7.112,2.49-12.939c0-6.705-0.854-11.687-2.563-14.941s-4.647-4.883-8.813-4.883
			c-3.711,0-6.396,1.399-8.057,4.199s-2.49,7.129-2.49,12.988c0,6.674,0.854,11.638,2.563,14.893
			C120.626,203.63,123.563,205.257,127.73,205.257z"/>
	</g>
	<g>
		<path fill="#FFFFFF" d="M16.048,240.966h2.638c0.145,0.313,0.217,0.65,0.217,1.012c0,0.325-0.066,0.548-0.198,0.668
			c-0.133,0.121-0.386,0.181-0.76,0.181h-7.822c-0.156-0.385-0.234-0.746-0.234-1.084c0-0.265,0.065-0.461,0.198-0.587
			c0.133-0.127,0.35-0.189,0.65-0.189h1.337c0.097-1.674,0.145-3.638,0.145-5.89v-7.823h-2.113
			c-0.145-0.434-0.217-0.854-0.217-1.265c0-0.301,0.065-0.521,0.198-0.659s0.355-0.208,0.669-0.208h1.463
			c0.036-3.022,0.645-5.118,1.824-6.287c1.181-1.168,3.048-1.752,5.602-1.752c1.457,0,2.564,0.12,3.324,0.361
			c0.758,0.241,1.138,0.687,1.138,1.337c0,0.578-0.247,1.187-0.741,1.824c-2.023-0.795-3.648-1.192-4.877-1.192
			c-1.061,0-1.756,0.353-2.087,1.057c-0.332,0.705-0.497,1.919-0.497,3.641v1.012h5.004c0.145,0.397,0.217,0.819,0.217,1.265
			c0,0.35-0.065,0.581-0.198,0.695c-0.133,0.115-0.397,0.172-0.795,0.172h-4.228v7.823
			C15.903,237.328,15.951,239.292,16.048,240.966z"/>
		<path fill="#FFFFFF" d="M24.922,225.844c0-0.325,0.126-0.533,0.38-0.623c0.252-0.091,1.849-0.184,4.787-0.28
			c0.072,0.555,0.072,1.295,0,2.223c1.337-0.903,2.622-1.529,3.857-1.879c1.234-0.35,2.357-0.524,3.369-0.524
			c0.337,0,0.562,0.039,0.678,0.117c0.114,0.079,0.172,0.251,0.172,0.516c0,0.518-0.082,1.072-0.244,1.662
			c-0.163,0.59-0.358,0.964-0.588,1.12c-0.229,0.156-0.607,0.277-1.138,0.361s-0.84,0.103-0.931,0.054
			c-0.09-0.048-0.364-0.379-0.822-0.993c-1.071,0-1.938,0.34-2.602,1.021c-0.662,0.681-0.993,2.051-0.993,4.11
			c0.012,3.697,0.061,6.443,0.145,8.238h2.548c0.145,0.313,0.217,0.65,0.217,1.012c0,0.325-0.066,0.548-0.199,0.668
			c-0.133,0.121-0.386,0.181-0.759,0.181h-7.642c-0.157-0.385-0.235-0.746-0.235-1.084c0-0.265,0.066-0.461,0.198-0.587
			c0.133-0.127,0.35-0.189,0.65-0.189h1.247c0.097-1.795,0.145-4.144,0.145-7.046c0-3.553-0.139-5.612-0.415-6.179
			c-0.277-0.566-0.808-0.85-1.59-0.85C25,226.555,24.922,226.205,24.922,225.844z"/>
		<path fill="#FFFFFF" d="M47.22,240.966h1.915c0.156,0.313,0.235,0.65,0.235,1.012c0,0.325-0.066,0.548-0.199,0.668
			c-0.133,0.121-0.392,0.181-0.777,0.181h-7.1c-0.145-0.385-0.217-0.746-0.217-1.084c0-0.265,0.063-0.461,0.189-0.587
			c0.127-0.127,0.347-0.189,0.66-0.189h1.336c0.085-1.674,0.127-3.638,0.127-5.89c0-2.746-0.021-4.58-0.063-5.502
			c-0.042-0.921-0.142-1.556-0.298-1.905s-0.377-0.566-0.659-0.65c-0.283-0.084-0.636-0.127-1.058-0.127
			c-0.156-0.253-0.234-0.548-0.234-0.885c0-0.494,0.234-0.795,0.705-0.903c0.469-0.108,1.379-0.163,2.728-0.163
			c0.951,0,1.596,0.045,1.933,0.136c0.338,0.09,0.53,0.259,0.578,0.506c0.049,0.247,0.072,0.672,0.072,1.273v8.221
			C47.093,237.328,47.136,239.292,47.22,240.966z M44.654,221.852c-0.783,0-1.361-0.163-1.734-0.488s-0.56-0.795-0.56-1.409
			c0.012-0.662,0.252-1.192,0.723-1.59c0.469-0.397,1.132-0.596,1.986-0.596c0.844,0,1.445,0.171,1.807,0.515
			c0.361,0.343,0.543,0.804,0.543,1.382c0,0.65-0.224,1.178-0.669,1.581S45.605,221.852,44.654,221.852z"/>
		<path fill="#FFFFFF" d="M61.767,224.67c2.24,0,3.902,0.53,4.986,1.59s1.627,2.807,1.627,5.239c0,1.072-0.193,1.818-0.578,2.24
			c-0.386,0.422-1.229,0.632-2.529,0.632h-7.986c0.024,1.964,0.419,3.505,1.184,4.625s2.117,1.681,4.057,1.681
			c1.807,0,3.486-0.47,5.04-1.409c0.518,0.518,0.776,1.065,0.776,1.644c0,0.808-0.665,1.373-1.996,1.698s-2.833,0.488-4.508,0.488
			c-3.083,0-5.296-0.653-6.639-1.961c-1.344-1.307-2.015-3.507-2.015-6.603c0-3.047,0.756-5.453,2.268-7.218
			C56.964,225.552,59.069,224.67,61.767,224.67z M61.081,227.091c-1.205,0-2.12,0.431-2.746,1.291
			c-0.627,0.861-0.97,2.208-1.03,4.038h1.86c1.976,0,3.321-0.039,4.038-0.117s1.132-0.208,1.247-0.389
			c0.114-0.181,0.172-0.518,0.172-1.012c0-1.192-0.302-2.125-0.904-2.8C63.116,227.428,62.237,227.091,61.081,227.091z"/>
		<path fill="#FFFFFF" d="M77.831,227.072c1.192-0.795,2.369-1.379,3.532-1.752c1.162-0.373,2.201-0.561,3.116-0.561
			c1.602,0,2.81,0.37,3.622,1.111c0.813,0.74,1.22,2.153,1.22,4.236c0,6.48,0.093,9.913,0.28,10.298
			c0.187,0.386,0.617,0.572,1.292,0.561c0.132,0.35,0.198,0.698,0.198,1.048c0,0.325-0.103,0.542-0.308,0.65
			c-0.204,0.108-0.584,0.162-1.138,0.162c-1.674,0-2.698-0.021-3.071-0.063c-0.373-0.042-0.626-0.168-0.759-0.379
			s-0.198-0.562-0.198-1.057v-7.787c0-2.48-0.263-4.131-0.786-4.95c-0.524-0.818-1.37-1.229-2.538-1.229
			c-1,0-1.864,0.283-2.593,0.85c-0.729,0.566-1.093,1.584-1.093,3.053v3.812c0,2.132,0.042,4.095,0.126,5.89h2.005
			c0.145,0.313,0.217,0.65,0.217,1.012c0,0.325-0.065,0.548-0.198,0.668c-0.133,0.121-0.386,0.181-0.759,0.181h-7.1
			c-0.157-0.385-0.235-0.746-0.235-1.084c0-0.265,0.066-0.461,0.198-0.587c0.133-0.127,0.35-0.189,0.65-0.189h1.247
			c0.097-1.915,0.145-4.264,0.145-7.046c0-3.553-0.139-5.612-0.415-6.179c-0.277-0.566-0.808-0.85-1.59-0.85
			c-0.157-0.337-0.235-0.687-0.235-1.048c0-0.325,0.126-0.533,0.38-0.623c0.252-0.091,1.849-0.184,4.787-0.28
			C77.903,225.495,77.903,226.205,77.831,227.072z"/>
		<path fill="#FFFFFF" d="M107.645,241.381c-1.096,0.65-2.12,1.114-3.071,1.392c-0.951,0.276-1.933,0.415-2.944,0.415
			c-2.048,0-3.623-0.614-4.725-1.843c-1.103-1.229-1.653-3.36-1.653-6.396c0-3.348,0.734-5.898,2.204-7.651
			c1.47-1.752,3.668-2.628,6.594-2.628c0.699,0,1.283,0.036,1.753,0.108s0.915,0.162,1.337,0.271c0-0.891-0.021-1.846-0.063-2.863
			s-0.126-1.737-0.253-2.159c-0.126-0.421-0.337-0.692-0.632-0.812c-0.296-0.12-0.672-0.181-1.13-0.181
			c-0.156-0.373-0.234-0.741-0.234-1.103c0-0.373,0.15-0.607,0.451-0.704c0.302-0.097,1.295-0.145,2.981-0.145
			c0.951,0,1.596,0.045,1.933,0.135c0.338,0.091,0.53,0.26,0.578,0.506c0.049,0.247,0.072,0.672,0.072,1.274v12.936
			c0,4.601,0.105,7.28,0.316,8.039s0.539,1.091,0.984,0.994c0.169,0.277,0.254,0.548,0.254,0.812c0,0.338-0.401,0.657-1.202,0.958
			s-1.454,0.451-1.96,0.451c-0.301,0-0.554-0.105-0.759-0.316C108.271,242.661,107.994,242.164,107.645,241.381z M103.436,227.091
			c-1.445,0-2.491,0.503-3.135,1.508c-0.645,1.006-0.967,2.744-0.967,5.213c0,2.168,0.307,3.869,0.922,5.104
			c0.613,1.234,1.649,1.852,3.107,1.852c0.771,0,1.475-0.153,2.113-0.461c0.639-0.307,1.075-0.71,1.31-1.21
			c0.235-0.5,0.353-1.731,0.353-3.694v-7.371c-0.434-0.241-0.961-0.458-1.581-0.65S104.23,227.091,103.436,227.091z"/>
		<path fill="#FFFFFF" d="M118.776,232.475c0-5.095-0.023-8.338-0.072-9.729c-0.048-1.391-0.135-2.297-0.262-2.719
			c-0.126-0.421-0.334-0.692-0.623-0.812s-0.668-0.181-1.139-0.181c-0.156-0.373-0.234-0.741-0.234-1.103
			c0-0.373,0.153-0.607,0.461-0.704c0.307-0.097,1.298-0.145,2.972-0.145c0.951,0,1.596,0.045,1.933,0.135
			c0.338,0.091,0.53,0.26,0.578,0.506c0.049,0.247,0.072,0.672,0.072,1.274v15.121c0.013,2.891,0.061,5.174,0.145,6.848h2.006
			c0.145,0.313,0.217,0.65,0.217,1.012c0,0.325-0.066,0.548-0.199,0.668c-0.132,0.121-0.385,0.181-0.758,0.181h-7.191
			c-0.156-0.385-0.234-0.746-0.234-1.084c0-0.265,0.066-0.461,0.199-0.587c0.132-0.127,0.349-0.189,0.65-0.189h1.336
			C118.729,239.292,118.776,236.461,118.776,232.475z"/>
		<path fill="#FFFFFF" d="M143.82,227.163c-0.578,1.771-1.737,5.492-3.478,11.165c-1.741,5.673-3.029,9.021-3.866,10.045
			c-0.838,1.023-1.783,1.68-2.837,1.969s-2.255,0.434-3.604,0.434c-1.312,0-2.165-0.097-2.556-0.289
			c-0.392-0.192-0.587-0.548-0.587-1.065c0-0.639,0.204-1.217,0.613-1.734c2.265,0.457,3.933,0.629,5.005,0.515
			s2.138-1.834,3.198-5.158c-1-0.036-1.542-0.084-1.627-0.145c-0.084-0.061-0.716-2.089-1.896-6.088s-1.918-6.441-2.213-7.326
			c-0.296-0.886-0.53-1.5-0.705-1.843c-0.175-0.344-0.395-0.554-0.659-0.633c-0.265-0.078-0.608-0.117-1.03-0.117
			c-0.156-0.397-0.234-0.765-0.234-1.102c0-0.409,0.205-0.653,0.614-0.732c0.409-0.078,1.24-0.117,2.493-0.117
			c0.964,0,1.614,0.058,1.951,0.172s0.572,0.325,0.705,0.632c0.132,0.308,0.334,1.16,0.604,2.557
			c0.271,1.397,0.843,3.725,1.717,6.982c0.873,3.259,1.364,4.888,1.472,4.888c0.109,0,0.657-1.876,1.645-5.628
			s1.554-6.212,1.698-7.38h-0.976c-0.145-0.35-0.217-0.705-0.217-1.066s0.069-0.614,0.208-0.759
			c0.138-0.145,0.364-0.217,0.677-0.217h5.096c0.156,0.338,0.234,0.699,0.234,1.084c0,0.374-0.078,0.627-0.234,0.759
			c-0.157,0.133-0.428,0.199-0.813,0.199H143.82z"/>
	</g>
</g>
<g id="Layer_3">
</g>
</svg>
