<?xml version="1.0" encoding="utf-8"?>
<!-- Generator: Adobe Illustrator 17.0.0, SVG Export Plug-In . SVG Version: 6.00 Build 0)  -->
<!DOCTYPE svg PUBLIC "-//W3C//DTD SVG 1.1//EN" "http://www.w3.org/Graphics/SVG/1.1/DTD/svg11.dtd">
<svg version="1.1" id="Layer_1" xmlns="http://www.w3.org/2000/svg" xmlns:xlink="http://www.w3.org/1999/xlink" x="0px" y="0px"
	 width="180px" height="55px" viewBox="0 0 180 55" enable-background="new 0 0 180 55" xml:space="preserve">
<circle fill-rule="evenodd" clip-rule="evenodd" fill="#ED1F24" cx="28.161" cy="22.158" r="19.205"/>
<g>
	<g>
		<path fill-rule="evenodd" clip-rule="evenodd" fill="#FFFFFF" d="M38.265,26.25c0-1,0-2,0-3c-0.25,0-0.5,0-0.75,0
			c-0.5-1.5-1-3-1.5-4.5c-0.25,0-0.5,0-0.75,0c0-0.5,0-1,0-1.5c-0.25,0-0.5,0-0.75,0c0-0.75,0-1.5,0-2.25c-0.5-0.25-1-0.5-1.5-0.75
			c0-0.75,0-1.5,0-2.25c-0.25,0-0.5,0-0.75,0c0-0.5,0-1,0-1.5c-0.25,0-0.5,0-0.75,0c0-1,0-2,0-3c-0.25,0-0.5,0-0.75,0
			c-0.783-1.631-0.186-1.828-1.5-3c0-0.25,0-0.5,0-0.75c-0.25,0-0.5,0-0.75,0c0,0.25,0,0.5,0,0.75c-2.319,1.569-0.36,0.919-1.5,3
			c-0.5,0.25-1,0.5-1.5,0.75c0,1,0,2,0,3c-0.25,0-0.5,0-0.75,0c0,0.5,0,1,0,1.5c-0.25,0-0.5,0-0.75,0c0,1,0,2,0,3
			c-0.25,0-0.5,0-0.75,0c0,0.5,0,1,0,1.5c0.25,0,0.5,0,0.75,0c0.5-1.5,1-3,1.5-4.5c0.25,0,0.5,0,0.75,0
			c0.935-2.095-0.195-2.227,1.5-3.75c0-0.25,0-0.5,0-0.75c0.25,0,0.5,0,0.75,0c0.25,0.75,0.5,1.5,0.75,2.25c0.25,0,0.5,0,0.75,0
			c0,0.5,0,1,0,1.5c0.5,0.25,1,0.5,1.5,0.75c0.25,1.25,0.5,2.5,0.75,3.75c1.3,2.431,2.085,1.105,2.25,5.25c-1.75,0-3.5,0-5.25,0
			c0,0.25,0,0.5,0,0.75c-0.25,0-0.5,0-0.75,0c0-0.25,0-0.5,0-0.75c-1.198-0.202-1.5,0.75-1.5,0.75
			c-1.052,0.138,0.288-0.531-0.75-0.75c-1.25,0-2.5,0-3.75,0c0-0.75,0-1.5,0-2.25c-0.25,0-0.5,0-0.75,0
			c-0.43,1.962-1.365,4.192-2.25,6c-0.25,0-0.5,0-0.75,0c0,0.75,0,1.5,0,2.25c-0.25,0-0.5,0-0.75,0c-1.005,1.94-1.456,3.9-3,5.25
			c0,0.25,0,0.5,0,0.75c0.5,0,1,0,1.5,0c1.5-3.25,3-6.5,4.5-9.75c1.816-0.019,13.503-0.833,14.25-1.5
			c1.203,1.142,4.332,8.887,4.5,11.25c0.5,0,1,0,1.5,0c0.333-2.439,0.761-3.643-0.75-6C39.765,27.25,39.015,26.75,38.265,26.25z
			 M70.515,32.25c0.25,0,0.5,0,0.75,0c0-0.25,0-0.5,0-0.75c-1.25-0.25-2.5-0.5-3.75-0.75c0-0.25,0-0.5,0-0.75
			c-0.75-0.5-1.5-1-2.25-1.5c0-0.5,0-1,0-1.5c-0.75-0.25-1.5-0.5-2.25-0.75c-0.727-2.698-2.512-3.144-3.75-5.25
			c1.71-0.709,3.739-1.181,5.25-2.25c0-0.25,0-0.5,0-0.75c0.75-0.5,1.5-1,2.25-1.5c0-0.25,0-0.5,0-0.75s0-0.5,0-0.75
			c0.25,0,0.5,0,0.75,0c-0.178-1.77-0.317-1.854-0.75-3c-5.19-1.01-9.945-1.875-15.75-0.75c0.797,4.21,2.193,18.563,0,21
			c0,0.25,0,0.5,0,0.75c1.788-0.389,2.343-0.883,3.75-1.5c-0.134-1.711-0.576-1.93-0.75-3c-0.302-1.854,0.835-5.787,0.75-6
			c-0.25,0-0.5,0-0.75,0c0-0.25,0-0.5,0-0.75c2.961,0.69,3.273,2.302,6,3c1.04,3.837,4.905,5.114,6.75,8.25c1.25,0,2.5,0,3.75,0
			C70.515,32.75,70.515,32.5,70.515,32.25z M57.765,20.25c-1,0-2,0-3,0c0-0.25,0-0.5,0-0.75c-0.378-0.3-0.777-3.902-0.75-6.75
			c3.695-0.689,6.004-0.383,9.75,0c0.25,0.75,0.5,1.5,0.75,2.25c-0.25,0-0.5,0-0.75,0c0,0.5,0,1,0,1.5c-0.25,0-0.5,0-0.75,0
			c-0.25,0.75-0.5,1.5-0.75,2.25c-1.5,0.25-3,0.5-4.5,0.75C57.765,19.75,57.765,20,57.765,20.25z M91.515,33c0-0.25,0-0.5,0-0.75
			c0.25,0,0.5,0,0.75,0c0-1.25,0-2.5,0-3.75c-0.25,0-0.5,0-0.75,0c0-0.25,0-0.5,0-0.75c0.25,0,0.5,0,0.75,0c0-2.75,0-5.5,0-8.25
			c-0.25-0.75-0.5-1.5-0.75-2.25c0.25,0,0.5,0,0.75,0c0-1.25,0-2.5,0-3.75c3.636,0.006,7.097-0.273,9.75-0.75c0-0.5,0-1,0-1.5
			c-3.363,0.66-14.193,1.37-16.5-0.75c-3.372,0.008-4.108,0.496-6,1.5c0.641,0.845-0.101,0.117,0.75,0.75c0,0.25,0,0.5,0,0.75
			c1.918-0.606,7.135-1.641,9,0c0.25,0,0.5,0,0.75,0c-0.4,0.884-1.233,2.02-0.75,3.75c1.345,4.82,0.292,10.856,0,15.75
			C90.015,33,90.765,33,91.515,33z M167.265,30.75c-3.979,0.102-10.279,1.344-12.75,0.75c0-0.25,0-0.5,0-0.75c-1.25,0-2.5,0-3.75,0
			c-0.25-4.25-0.5-8.5-0.75-12.75c3.331,0.067,13.385,0.711,15-0.75c0.25,0,0.5,0,0.75,0c0-0.5,0-1,0-1.5c-0.25,0-0.5,0-0.75,0
			c0,0.25,0,0.5,0,0.75c-4.811,0.037-11.413,0.584-15-0.75c0-1,0-2,0-3c3.087,0.075,9.536,0.817,11.25-0.75c0.25,0,0.5,0,0.75,0
			c0-0.5,0-1,0-1.5c-3.133,1.124-13.113-0.138-14.25,0.75c-0.5,0-1,0-1.5,0c1.567,3.579,3.048,14.927,0.75,21
			c4.508,1.631,12.701-0.461,14.25,0.75c3.371-0.008,4.108-0.496,6-1.5C167.265,31.25,167.265,31,167.265,30.75z M133.515,11.25
			c-0.75,0-1.5,0-2.25,0c0,0.25,0,0.5,0,0.75c-0.25,0-0.5,0-0.75,0c0.25,2.25,0.5,4.5,0.75,6.75c-1.5,0-3,0-4.5,0
			c0,0.25,0,0.5,0,0.75c-3.75-0.25-7.5-0.5-11.25-0.75c0-1.25,0-2.5,0-3.75c0.25,0,0.5,0,0.75,0c0.056-0.827-1.563-1.487-0.75-3
			c0.25,0,0.5,0,0.75,0c0-0.25,0-0.5,0-0.75c-1.969,0.089-2.547,0.296-3.75,0.75c0.193,2.825,1.589,10.807,0.75,12c0,3,0,6,0,9
			c0.845-0.641,0.117,0.101,0.75-0.75c0.75-0.25,1.5-0.5,2.25-0.75c-0.026-4.859-0.386-7.575-0.75-10.5c1.25-0.25,2.5-0.5,3.75-0.75
			c0,0,0.64,1.102,2.25,0.75c0-0.25,0-0.5,0-0.75c0.25,0,0.5,0,0.75,0c0,0.25,0,0.5,0,0.75c0.25,0,0.5,0,0.75,0c0-0.25,0-0.5,0-0.75
			c1.25,0.25,2.5,0.5,3.75,0.75c0-0.25,0-0.5,0-0.75c0.727,0.068,2.215,1.588,3.75,0.75c0-0.25,0-0.5,0-0.75c0.25,0,0.5,0,0.75,0
			c-0.018,4.824-0.579,8.806-0.75,12.75c1.819-0.461,1.649-0.792,3-1.5C133.53,23.991,133.449,16.905,133.515,11.25z M23.265,17.25
			c-0.25,0-0.5,0-0.75,0c0,0.75,0,1.5,0,2.25c0.25,0,0.5,0,0.75,0C23.265,18.75,23.265,18,23.265,17.25z M29.265,39
			c-0.25,0-0.5,0-0.75,0c0-0.25,0-0.5,0-0.75c0.25,0,0.5,0,0.75,0c0-1,0-2,0-3c-0.25,0-0.5,0-0.75,0c0-0.25,0-0.5,0-0.75
			c0.25,0,0.5,0,0.75,0c0-2.75,0-5.5,0-8.25c-0.75,0-1.5,0-2.25,0c0.25,5,0.5,10,0.75,15c-3.393-0.072-6.621-0.177-8.25,1.5
			c-1.448,0.863-1.789,2.004-3,3c0.065,3.178,0.615,4.018,1.5,6c2.058,0.381,5.253,1.414,8.25,0.75c0.195-0.043,0.24-0.972,1.5-0.75
			c0,0.25,0,0.5,0,0.75c0.5,0,1,0,1.5,0c0.641-0.845-0.101-0.117,0.75-0.75c0-0.75,0-1.5,0-2.25c-0.25,0-0.5,0-0.75,0
			C29.265,46,29.265,42.5,29.265,39z M27.765,46.5c-0.25,0-0.5,0-0.75,0c0,1.5,0,3,0,4.5c-3.247,0.079-6.975,0.41-8.25-1.5
			c0-0.75,0-1.5,0-2.25c-0.25,0-0.5,0-0.75,0c0.518-2.043,1.017-1.696,1.5-3.75c2.5-0.25,5-0.5,7.5-0.75c0,1,0,2,0,3
			c0.25,0,0.5,0,0.75,0C27.765,46,27.765,46.25,27.765,46.5z M139.515,49.5c0-2.75,0-5.5,0-8.25c-0.25,0-0.5,0-0.75,0
			c-1.135,3.312,0.848,3.272,0,6.75c-0.25,0-0.5,0-0.75,0c0,0.25,0,0.5,0,0.75c0.25,0,0.5,0,0.75,0c0,0.25,0,0.5,0,0.75
			c-0.25,0-0.5,0-0.75,0c0,0.75,0,1.5,0,2.25c1.497-0.451,0.646,0.104,1.5-0.75c0.25,0,0.5,0,0.75,0
			C140.74,49.61,139.828,49.934,139.515,49.5z M102.015,42.75c-0.25,0-0.5,0-0.75,0c0,0.25,0,0.5,0,0.75c0.5,0,1,0,1.5,0
			c-0.451-1.497,0.104-0.646-0.75-1.5C102.015,42.25,102.015,42.5,102.015,42.75z M145.515,43.5c1.492,0.294,0.953-0.395,1.5-0.75
			c0.845-0.641,0.117,0.101,0.75-0.75c-0.5,0-1,0-1.5,0C146.015,42.5,145.765,43,145.515,43.5z M93.765,43.5c-0.5,0-1,0-1.5,0
			c0,0.75,0,1.5,0,2.25c0,0-2.835-0.039-1.5,0.75c0.5,0,1,0,1.5,0c0,1.75,0,3.5,0,5.25c1,0,2,0,3,0c0-0.25,0-0.5,0-0.75
			c-0.5,0-1,0-1.5,0c0-1.5,0-3,0-4.5c0.25,0,0.5,0,0.75,0c0,0.25,0,0.5,0,0.75c0.25,0,0.5,0,0.75,0c0-0.25,0-0.5,0-0.75
			c0.5,0,1,0,1.5,0c0-0.25,0-0.5,0-0.75c-1.25,0-2.5,0-3.75,0C93.265,45,93.515,44.25,93.765,43.5z M34.515,45.75
			c0,0.25,0,0.5,0,0.75c1,0,2,0,3,0c0,0.25,0,0.5,0,0.75c-1.479,0.82-3.066-0.605-3.75-0.75c0,0.25,0,0.5,0,0.75
			c-0.5,0.25-1,0.5-1.5,0.75c0.292,2.422,0.68,2.191,1.5,3.75c1.5,0,3,0,4.5,0c0-0.25,0-0.5,0-0.75c-1.5-0.25-3-0.5-4.5-0.75
			c0-0.75,0-1.5,0-2.25c2,0,4,0,6,0c-0.5-0.75-1-1.5-1.5-2.25C37.015,45.75,35.765,45.75,34.515,45.75z M51.015,45.75
			c-1.5,0-3,0-4.5,0c0,0.25,0,0.5,0,0.75c1.5,0,3,0,4.5,0C51.015,46.25,51.015,46,51.015,45.75z M58.515,46.5c1.25,0,2.5,0,3.75,0
			c0.817,2.22,0.86,2.268,0,4.5c0.5,0,1,0,1.5,0c0.25-1.5,0.5-3,0.75-4.5c-1.94-0.372-3.313-0.761-6-0.75
			C58.515,46,58.515,46.25,58.515,46.5z M69.765,51.75c0.25,0,0.5,0,0.75,0c0.356-0.978,1.082-1.297,0.75-3
			c-0.203-1.041-0.94,0.293-0.75-0.75c0.25,0,0.5,0,0.75,0c0-0.5,0-1,0-1.5c1.25,0,2.5,0,3.75,0c0-0.25,0-0.5,0-0.75
			c-1.75,0-3.5,0-5.25,0C69.765,47.75,69.765,49.75,69.765,51.75z M80.265,45.75c0,0.25,0,0.5,0,0.75c-0.25,0-0.5,0-0.75,0
			c0,0.25,0,0.5,0,0.75c1.497-0.451,0.646,0.104,1.5-0.75c1.969,0.089,2.547,0.296,3.75,0.75c0,0.25,0,0.5,0,0.75
			c-1.25,0-2.5,0-3.75,0c0,0.25,0,0.5,0,0.75c1.25,0,2.5,0,3.75,0c-0.25,0.75-0.5,1.5-0.75,2.25c-1.25,0-2.5,0-3.75,0
			c0.451-1.497-0.104-0.646,0.75-1.5c0-0.25,0-0.5,0-0.75c-0.5,0-1,0-1.5,0c0,0.25,0,0.5,0,0.75c-0.25,0-0.5,0-0.75,0
			c0.25,0.75,0.5,1.5,0.75,2.25c2.672,0.022,5.076-0.118,6.75-0.75c-0.076-3.903-0.268-2.927-1.5-5.25
			C83.265,45.75,81.765,45.75,80.265,45.75z M101.265,45.75c0,2,0,4,0,6c0.25,0,0.5,0,0.75,0c0.654-1.714,0.797-3.317,0.75-6
			C102.265,45.75,101.765,45.75,101.265,45.75z M110.265,48.75c-0.25,0-0.5,0-0.75,0c-1.559-2.047,1.354-1.963-2.25-3
			c0.476,2.249,1.501,4.042,3,5.25c0,0.25,0,0.5,0,0.75c0.25,0,0.5,0,0.75,0c0-0.25,0-0.5,0-0.75c0.5-0.25,1-0.5,1.5-0.75
			c0-0.5,0-1,0-1.5c-0.75,0.25-1.5,0.5-2.25,0.75C110.265,49.25,110.265,49,110.265,48.75z M112.515,48.75c0.25,0,0.5,0,0.75,0
			c0-0.75,0-1.5,0-2.25c0.25,0,0.5,0,0.75,0c0-0.25,0-0.5,0-0.75c-0.5,0-1,0-1.5,0C112.515,46.75,112.515,47.75,112.515,48.75z
			 M120.765,50.25c-0.25,0-0.5,0-0.75,0c-0.451-1.497,0.104-0.646-0.75-1.5c0-0.25,0-0.5,0-0.75c2,0,4,0,6,0
			c-0.25-0.75-0.5-1.5-0.75-2.25c-1.25,0-2.5,0-3.75,0c0,0.25,0,0.5,0,0.75c1,0,2,0,3,0c0,0.25,0,0.5,0,0.75
			c-1.5-0.25-3-0.5-4.5-0.75c0,0.25,0,0.5,0,0.75c-0.25,0-0.5,0-0.75,0c0,1.25,0,2.5,0,3.75c1.94,0.372,3.313,0.761,6,0.75
			c0-0.25,0-0.5,0-0.75c-1.25,0-2.5,0-3.75,0C120.765,50.75,120.765,50.5,120.765,50.25z M145.515,45.75c0,2,0,4,0,6
			c0.25,0,0.5,0,0.75,0c0.654-1.714,0.797-3.317,0.75-6C146.515,45.75,146.015,45.75,145.515,45.75z M153.015,45.75c0,2,0,4,0,6
			c0.25,0,0.5,0,0.75,0c0-1.5,0-3,0-4.5c0.845-0.641,0.117,0.101,0.75-0.75c1,0,2,0,3,0c0,0.25,0,0.5,0,0.75c0.25,0,0.5,0,0.75,0
			c0,1.5,0,3,0,4.5c0.25,0,0.5,0,0.75,0c0-0.25,0-0.5,0-0.75c0.25,0,0.5,0,0.75,0c-0.08-1.28-0.777-2.761-0.75-3
			c0.25,0,0.5,0,0.75,0c0-0.5,0-1,0-1.5C158.104,45.867,155.68,45.696,153.015,45.75z M171.765,48c0-0.75,0-1.5,0-2.25
			c-5.144-0.029-4.612,0.57-7.5,2.25c0.178,1.769,0.317,1.854,0.75,3c2.047,0.391,3.881,0.779,6.75,0.75c0-0.5,0-1,0-1.5
			c-1.497,0.451-0.646-0.104-1.5,0.75c-3.23-0.173-2.541-0.463-4.5-1.5c0-0.5,0-1,0-1.5C167.765,48,169.765,48,171.765,48z
			 M169.515,46.5c0,0.25,0,0.5,0,0.75c-1.312,0.64-1.881-0.43-2.25-0.75C168.015,46.5,168.765,46.5,169.515,46.5z M58.515,50.25
			c-0.5-0.25-1-0.5-1.5-0.75c0.461-1.819,0.792-1.649,1.5-3c-0.5,0-1,0-1.5,0c-0.5,1-1,2-1.5,3c0.761,0.645,1.058,1.289,1.5,2.25
			c1.75,0,3.5,0,5.25,0c0-0.25,0-0.5,0-0.75c-1.25,0-2.5,0-3.75,0C58.515,50.75,58.515,50.5,58.515,50.25z M45.765,47.25
			c-0.25,0-0.5,0-0.75,0c0,0.25,0,0.5,0,0.75c-0.25,0-0.5,0-0.75,0c0.292,2.422,0.68,2.191,1.5,3.75c1.5,0,3,0,4.5,0
			c0-0.25,0-0.5,0-0.75c-1.5-0.25-3-0.5-4.5-0.75C45.765,49.25,45.765,48.25,45.765,47.25z M39.765,51c0-0.25,0-0.5,0-0.75
			c-0.5,0-1,0-1.5,0C39.116,51.09,38.258,50.57,39.765,51z M51.765,51c0-0.25,0-0.5,0-0.75c-0.5,0-1,0-1.5,0
			C51.116,51.09,50.258,50.57,51.765,51z M126.015,51c0-0.25,0-0.5,0-0.75c-0.5,0-1,0-1.5,0C125.366,51.09,124.508,50.57,126.015,51
			z"/>
	</g>
</g>
</svg>
